# xmcd
#
# Track frame offsets:
#	150
#	17932
#	34941
#	45740
#	67827
#	85311
#	113500
#	128203
#	138719
#	153601
#
# Disc length: 2266 seconds
#
# Revision: 0
# Processed by: cddbd v1.4PL0 Copyright (c) Steve Scherf et al.
# Submitted via: dBpowerAMP V4.0
#
DISCID=8608d80a
DTITLE=The Free Bird Band - Recorded Live at CWeeds Cabaret
DYEAR=2002
DGENRE=Country
TTITLE0=Walk Softly
TTITLE1=Keep Your Hands To Yourself
TTITLE2=Guitar Toen
TTITLE3=Past The Point
TTITLE4=Suspicious Minds
TTITLE5=Move It On Over
TTITLE6=Please Please Baby
TTITLE7=Big John McNiel
TTITLE8=Turn It Up Tuen Me Loose
TTITLE9=Hillbilly Highway
EXTD=
EXTT0=
EXTT1=
EXTT2=
EXTT3=
EXTT4=
EXTT5=
EXTT6=
EXTT7=
EXTT8=
EXTT9=
PLAYORDER=
